 <svg xmlns="http://www.w3.org/2000/svg" width="20" height="20" fill="white" viewBox="0 0 24 24">
        <path d="M12 2C6.477 2 2 6.477 2 12s4.477 10 10 10
                 10-4.477 10-10S17.523 2 12 2zm7.938 8h-3.05a15.94
                 15.94 0 0 0-1.405-4.042A8.024 8.024 0 0 1
                 19.938 10zM12 4c1.657 0 3.197 2.37 3.874 6h-7.748C8.803
                 6.37 10.343 4 12 4zM4.062 10a8.024 8.024 0 0 1
                 4.455-4.042A15.94 15.94 0 0 0 7.112
                 10H4.062zm0 4h3.05a15.94 15.94 0 0 0
                 1.405 4.042A8.024 8.024 0 0 1 4.062
                 14zm7.938 6c-1.657 0-3.197-2.37-3.874-6h7.748c-.677
                 3.63-2.217 6-3.874 6zm3.874-1.958A15.94 15.94
                 0 0 0 16.888 14h3.05a8.024 8.024 0 0 1-4.455
                 4.042z"/>
      </svg>